<svg xmlns="http://www.w3.org/2000/svg" viewBox="0 0 512 512">
  <defs>
    <linearGradient id="grad1" x1="0%" y1="0%" x2="100%" y2="100%">
      <stop offset="0%" style="stop-color:#667eea;stop-opacity:1" />
      <stop offset="100%" style="stop-color:#764ba2;stop-opacity:1" />
    </linearGradient>
  </defs>
  <circle cx="256" cy="256" r="256" fill="url(#grad1)"/>
  <path fill="white" d="M361.5 192.5c-8.284 0-15 6.716-15 15v89.793c-10.94-7.264-23.984-11.543-38-11.543-37.943 0-68.75 30.807-68.75 68.75s30.807 68.75 68.75 68.75 68.75-30.807 68.75-68.75v-108.793l45-15v60.043c-10.94-7.264-23.984-11.543-38-11.543-37.943 0-68.75 30.807-68.75 68.75s30.807 68.75 68.75 68.75 68.75-30.807 68.75-68.75v-140c0-8.284-6.716-15-15-15zm-53 131.25c0 21.372-17.378 38.75-38.75 38.75s-38.75-17.378-38.75-38.75 17.378-38.75 38.75-38.75 38.75 17.378 38.75 38.75zm107.75 23.25c-21.372 0-38.75 17.378-38.75 38.75s17.378 38.75 38.75 38.75 38.75-17.378 38.75-38.75-17.378-38.75-38.75-38.75z"/>
</svg>

